HIERARCHY
ROOT Hips
{
	OFFSET	0.00	0.00	0.00
	CHANNELS 6 Xposition Yposition Zposition Zrotation Xrotation Yrotation
	JOINT Spine
	{
		OFFSET	 0.00	0.01	 0.00
		CHANNELS 3 Zrotation Xrotation Yrotation
		JOINT Spine1
		{
			OFFSET	 0.00	 2.45913012437421	 0.00
			CHANNELS 3 Zrotation Xrotation Yrotation
            JOINT Neck
            {
                OFFSET	 0.00	 2.48462964506057	 0.00
                CHANNELS 3 Zrotation Xrotation Yrotation
                JOINT Head
                {
                    OFFSET	 0.00	 0.927524780924562	 0.00
                    CHANNELS 3 Zrotation Xrotation Yrotation
                    End Site 
                    {
                        OFFSET	 0.00	 1.14999962169752	 0.00
                    }
                }
            }
			JOINT LeftShoulder
			{
				OFFSET	 0.00	 2.48462964506057	 0.00
				CHANNELS 3 Zrotation Xrotation Yrotation
				JOINT LeftUpArm
				{
					OFFSET	 0.00	 1.24881979654096	 0.00
					CHANNELS 3 Zrotation Xrotation Yrotation
					JOINT LeftForeArm
					{
						OFFSET	 0.00	2.59758046908119	 0.00
						CHANNELS 3 Zrotation Xrotation Yrotation
						JOINT LeftHand
						{
							OFFSET	 0.00	2.45542024364365	 0.00
							CHANNELS 3 Zrotation Xrotation Yrotation
							JOINT LeftHandThumb 
							{
								OFFSET	 0.00	0.00	 0.00
								CHANNELS 3 Zrotation Xrotation Yrotation
								End Site
								{
									OFFSET	 0.00	0.00	1.00000003353624
								}
							}
							JOINT L_Wrist_End 
							{
								OFFSET	 0.00	0.99999967115358	 0.00
								CHANNELS 3 Zrotation Xrotation Yrotation
								End Site 
								{
									OFFSET	 0.00	 0.00	 0.00
								}
							}
						}
					}
				}
			}
			JOINT RightShoulder
			{
				OFFSET	 0.00	 2.48462964506057	 0.00
				CHANNELS 3 Zrotation Xrotation Yrotation
				JOINT RightUpArm
				{
					OFFSET	 0.00	 1.24881979654096	 0.00
					CHANNELS 3 Zrotation Xrotation Yrotation
					JOINT RightForeArm
					{
						OFFSET	 0.00	2.59758046908119	 0.00
						CHANNELS 3 Zrotation Xrotation Yrotation
						JOINT RightHand
						{
							OFFSET	 0.00	2.45542024364365	 0.00
							CHANNELS 3 Zrotation Xrotation Yrotation
							JOINT RightHandThumb 
							{
								OFFSET	 0.00	0.00	 0.00
								CHANNELS 3 Zrotation Xrotation Yrotation
								End Site
								{
									OFFSET	 0.00	0.00	1.00000003353624
								}
							}
							JOINT R_Wrist_End 
							{
								OFFSET	 0.00	0.99999967115358	 0.00
								CHANNELS 3 Zrotation Xrotation Yrotation
								End Site 
								{
									OFFSET	 0.00	 0.00	 0.00
								}
							}
						}
					}
				}
			}
		}
	}
	JOINT LeftUpLeg
	{
		OFFSET	 1.2719394002717	 0.00	 0.00
		CHANNELS 3 Zrotation Xrotation Yrotation
		JOINT LeftLowLeg
		{
			OFFSET	 0.00	-4.3429100912261	 0.00
			CHANNELS 3 Zrotation Xrotation Yrotation
			JOINT LeftFoot
			{
				OFFSET	 0.00	-4.48767017425826	 0.00
				CHANNELS 3 Zrotation Xrotation Yrotation
				JOINT LeftToeBase
                {
                    OFFSET	 0.00	0.00	 1.51507020887566
                    CHANNELS 3 Zrotation Xrotation Yrotation
                    End Site 
                    {
                        OFFSET	 0.00	0.00	 0.75000010571191
                    }
                }
			}
		}
	}
	JOINT RightUpLeg
	{
		OFFSET	 -1.2719393604653	 0.00	 0.00
		CHANNELS 3 Zrotation Xrotation Yrotation
		JOINT RightLowLeg
		{
			OFFSET	 0.00	-4.3429100912261	 0.00
			CHANNELS 3 Zrotation Xrotation Yrotation
			JOINT RightFoot
			{
				OFFSET	 0.00	-4.48767017425826	 0.00
				CHANNELS 3 Zrotation Xrotation Yrotation
				JOINT RightToeBase
                {
                    OFFSET	 0.00	0.00	 1.51507020887566
                    CHANNELS 3 Zrotation Xrotation Yrotation
                    End Site 
                    {
                        OFFSET	 0.00	0.00	 0.749999965609858
                    }
                }   
			}
		}
	}
}
MOTION 
Frames:	15 
Frame Time: 0.02 
  11.008399658203125 2.0134599304199217 9.509949951171874 -24.7722 76.9514 1272.91 -4.01133 -20.0884 18.762 1.89549 9.53802 -18.462 10.2019 48.6768 396.91 -84.5034 -47.1381 -437.024 -111.6538 -4.41135 367.563 -49.7903 19.6333 9.73662 0.0 18.8768 0.0 27.1134 -11.3985 -24.8742 0.0 0.0 0.0 0.0 0.0 0.0 116.1803 -12.3902 -360.357 50.9083 -2.86421 -6.36218 0.0 25.0056 0.0 -1.45586 -7.94385 10.86 0.0 0.0 0.0 0.0 0.0 0.0 -15.5775 -9.6381 -7.67901 0.0 13.6441 0.0 -7.95267 -5.5072994 9.33494 0.0 -17.92047 0.0 3.01818 -46.2248 12.1671 0.0 55.3857 0.0 33.5409 -2.9659004 -5.66464 0.0 -18.78861 0.0 
  11.029599609375 2.1266600036621095 9.499810180664063 -23.836 76.4507 1272.51 -4.21631 -20.0734 18.6976 1.73834 9.51841 -18.3689 11.4418 48.0766 395.662 -84.7183 -47.5506 -437.246 -111.598404 -4.19768 367.92 -49.4176 20.6184 9.7774 0.0 18.8095 0.0 27.2275 -11.4492 -24.3268 0.0 0.0 0.0 0.0 0.0 0.0 116.2003 -12.5092 -360.144 51.3928 -3.40228 -6.28 0.0 24.0913 0.0 -1.15725 -8.158 10.9122 0.0 0.0 0.0 0.0 0.0 0.0 -15.5311 -9.36596 -7.94578 0.0 13.6581 0.0 -7.89606 -5.8465996 9.00437 0.0 -18.2932 0.0 3.82808 -46.8754 14.6172 0.0 49.902 0.0 34.2667 -2.7527008 -3.98965 0.0 -18.25289 0.0 
  11.049300537109374 2.244759979248047 9.488330078125 -22.8036 75.7956 1271.97 -4.29207 -20.3048 18.7694 1.51201 9.62403 -18.279 12.5614 47.4725 394.507 -85.0642 -47.8973 -437.625 -111.691696 -3.92022 368.024 -48.9551 21.2889 9.79969 0.0 18.6512 0.0 26.9785 -11.2526 -24.7335 0.0 0.0 0.0 0.0 0.0 0.0 116.183395 -12.5467 -359.84 51.9138 -3.99523 -6.27166 0.0 22.9455 0.0 -0.635683 -8.26943 10.9975 0.0 0.0 0.0 0.0 0.0 0.0 -15.4875 -9.24025 -8.14167 0.0 13.7306 0.0 -8.01873 -6.2434998 8.52137 0.0 -18.21279 0.0 4.43634 -47.2516 16.817 0.0 43.8079 0.0 34.9262 -2.9071999 -2.39463 0.0 -17.72905 0.0 
  11.066300048828126 2.369160003662109 9.475490112304687 -21.709 75.2569 1271.42 -4.17398 -20.4706 18.9721 1.19336 9.80262 -18.2397 13.6276 46.8237 393.333 -85.4485 -48.1904 -437.985 -111.8637 -3.64754 368.081 -48.4525 21.8079 9.88816 0.0 18.5316 0.0 26.911 -11.3894 -24.0977 0.0 0.0 0.0 0.0 0.0 0.0 116.215 -12.5404 -359.614 52.342 -4.54654 -6.13599 0.0 21.8232 0.0 0.203482 -8.62444 11.1368 0.0 0.0 0.0 0.0 0.0 0.0 -15.3648 -9.016 -8.02561 0.0 13.8249 0.0 -7.82345 -6.5804005 7.88383 0.0 -18.16308 0.0 4.71693 -47.0991 18.6828 0.0 37.3636 0.0 36.469 -3.3344994 -0.306755 0.0 -16.8756 0.0 
  11.08239990234375 2.511130065917969 9.467310180664063 -20.5063 76.231 1270.82 -3.56125 -19.699 19.4674 0.982689 10.6454 -18.2863 14.7445 46.271 392.106 -86.3283 -48.454 -438.613 -112.2177 -3.10493 369.418 -47.3223 23.0607 9.05971 0.0 18.451 0.0 26.8354 -11.2116 -23.7199 0.0 0.0 0.0 0.0 0.0 0.0 116.5053 -12.3016 -360.607 52.4792 -4.12631 -5.60343 0.0 20.7099 0.0 0.823668 -8.50121 11.4789 0.0 0.0 0.0 0.0 0.0 0.0 -14.8789 -7.28292 -7.44813 0.0 13.9813 0.0 -7.768 -6.8978996 7.10386 0.0 -18.31692 0.0 4.65046 -44.8044 19.6612 0.0 30.3138 0.0 38.163 -3.6012993 1.80106 0.0 -16.91433 0.0 
  11.096500244140625 2.6537399291992188 9.455670166015626 -18.344 76.1317 1269.43 -2.99628 -19.8432 19.8922 0.81413 11.2174 -18.3999 15.5852 45.7431 391.118 -87.3108 -48.58 -439.441 -112.544205 -2.74724 369.668 -46.7745 23.536 8.73053 0.0 18.2329 0.0 26.5531 -11.0104 -23.7692 0.0 0.0 0.0 0.0 0.0 0.0 116.6857 -12.1663 -360.506 52.5911 -4.53953 -5.40073 0.0 19.608 0.0 1.98804 -8.88931 11.6027 0.0 0.0 0.0 0.0 0.0 0.0 -14.4386 -6.72682 -7.11338 0.0 14.4205 0.0 -7.60942 -7.2777996 6.24999 0.0 -18.32225 0.0 4.3263 -43.2264 20.8438 0.0 23.0932 0.0 40.9744 -3.7752 3.8449 0.0 -16.51823 0.0 
  11.11300048828125 2.8056600952148436 9.444639892578126 -15.6722 76.037 1267.66 -2.37739 -20.138 20.3214 0.80754 11.8369 -18.5338 16.3929 45.2962 390.078 -88.3366 -48.6123 -440.228 -112.9102 -2.39279 369.962 -46.2928 23.9513 8.49983 0.0 18.0354 0.0 26.2961 -10.9911 -23.6306 0.0 0.0 0.0 0.0 0.0 0.0 116.9521 -12.018 -360.41 52.4936 -4.99354 -5.30456 0.0 18.6523 0.0 2.96513 -9.27062 11.3078 0.0 0.0 0.0 0.0 0.0 0.0 -13.8491 -6.13641 -6.83917 0.0 14.9191 0.0 -7.59934 -7.6553993 5.23049 0.0 -18.65752 0.0 3.88994 -41.4964 20.8848 0.0 16.7205 0.0 43.5262 -3.9193 5.64233 0.0 -15.925966 0.0 
  11.138199462890626 2.967909851074219 9.43083984375 -13.1991 75.1152 1266.18 -2.142 -21.0368 20.5433 0.881889 11.9079 -18.5045 17.3308 44.922 388.795 -89.3193 -48.5921 -440.832 -113.2219 -2.30329 369.134 -46.4369 23.4335 9.26096 0.0 17.9838 0.0 25.992 -11.5309 -23.1166 0.0 0.0 0.0 0.0 0.0 0.0 117.236 -12.2148 -359.263 52.2008 -6.31943 -5.68551 0.0 17.8014 0.0 3.83866 -9.74079 11.0505 0.0 0.0 0.0 0.0 0.0 0.0 -13.3427 -6.2305 -6.89958 0.0 15.3696 0.0 -7.60049 -8.0007 4.28613 0.0 -18.94106 0.0 3.71307 -40.89 19.7596 0.0 13.0283 0.0 44.9486 -4.408001 7.19683 0.0 -15.132617 0.0 
  11.16989990234375 3.1164700317382814 9.408489990234376 -12.8304 74.2059 1266.54 -2.52512 -21.021 20.6391 0.568614 10.5738 -18.042 17.8303 45.013 388.033 -89.4992 -48.4163 -441.215 -113.16 -2.40153 369.416 -46.7798 23.3547 9.77769 0.0 17.2398 0.0 25.4121 -9.82924 -23.5944 0.0 0.0 0.0 0.0 0.0 0.0 117.3078 -12.6413 -359.875 52.0395 -6.55495 -5.58197 0.0 16.9881 0.0 4.45515 -10.0351 10.7477 0.0 0.0 0.0 0.0 0.0 0.0 -13.2828 -6.47055 -7.11572 0.0 16.1141 0.0 -7.82962 -8.3543 3.57346 0.0 -19.35314 0.0 4.35163 -42.0528 21.1448 0.0 15.0915 0.0 46.0663 -5.0142 7.14359 0.0 -15.246602 0.0 
  11.205400390625 3.2768399047851564 9.388660278320312 -12.8775 73.524 1267.41 -3.49896 -22.3691 19.9006 1.82966 11.6521 -17.7725 17.0638 43.6282 388.352 -88.4691 -48.4003 -440.447 -113.032196 -2.44555 368.103 -47.8719 22.8162 9.89284 0.0 16.8582 0.0 24.8745 -9.35524 -22.4461 0.0 0.0 0.0 0.0 0.0 0.0 116.8638 -12.0355 -359.782 52.178 -6.68351 -5.87002 0.0 16.4245 0.0 4.69726 -10.4736 10.8539 0.0 0.0 0.0 0.0 0.0 0.0 -13.3105 -6.35587 -7.55795 0.0 16.7683 0.0 -8.23396 -8.4147 2.9626 0.0 -20.01338 0.0 5.41085 -43.6636 22.9991 0.0 20.3022 0.0 44.989 -4.9501 5.97569 0.0 -15.884641 0.0 
  11.239200439453125 3.455469970703125 9.371589965820313 -12.36 73.0214 1267.71 -3.85824 -22.7282 19.7318 1.82763 11.1078 -17.5741 17.117 43.604 388.093 -87.992 -48.3165 -440.061 -112.861 -2.63864 368.31 -48.2685 22.236 10.5587 0.0 17.0114 0.0 24.7437 -9.38375 -23.2051 0.0 0.0 0.0 0.0 0.0 0.0 116.774704 -12.1328 -360.343 52.047 -6.77662 -6.47286 0.0 15.7842 0.0 4.62283 -10.589 10.9636 0.0 0.0 0.0 0.0 0.0 0.0 -13.1862 -5.91191 -7.84153 0.0 17.2544 0.0 -9.10178 -8.3342 2.38654 0.0 -20.80211 0.0 6.29764 -44.4268 23.4671 0.0 24.6618 0.0 41.9968 -5.1411 5.31312 0.0 -16.70792 0.0 
  11.27010009765625 3.6471798706054686 9.370910034179687 -9.67685 72.6913 1265.88 -3.41883 -23.3831 19.9549 1.9238 10.9184 -17.7865 17.1557 44.1677 387.991 -88.3482 -48.1037 -440.211 -113.1376 -2.75631 368.686 -48.0111 21.5603 11.2373 0.0 17.0713 0.0 24.5625 -9.91269 -23.0421 0.0 0.0 0.0 0.0 0.0 0.0 117.0124 -12.0904 -360.33 51.5541 -7.15253 -6.93758 0.0 15.2682 0.0 4.43886 -10.9374 10.7875 0.0 0.0 0.0 0.0 0.0 0.0 -12.3772 -5.31727 -7.82443 0.0 17.6663 0.0 -8.84698 -7.9253006 2.28308 0.0 -22.04662 0.0 6.89162 -43.803 22.3703 0.0 24.9843 0.0 39.6414 -5.0462 5.63055 0.0 -15.76611 0.0 
  11.30510009765625 3.853609924316406 9.385449829101562 -5.38308 72.4407 1262.58 -2.54229 -24.2738 20.4074 2.17828 10.9131 -18.2015 17.2945 44.9001 387.815 -88.7295 -47.8749 -440.425 -113.6598 -2.87243 368.992 -47.5056 20.8609 11.4269 0.0 16.8175 0.0 24.2732 -9.31328 -22.8773 0.0 0.0 0.0 0.0 0.0 0.0 117.5422 -12.1861 -360.018 50.823 -7.58299 -7.14119 0.0 14.8337 0.0 4.04507 -11.0031 11.1146 0.0 0.0 0.0 0.0 0.0 0.0 -10.9514 -4.68974 -7.44915 0.0 18.1961 0.0 -10.1775 -7.4545994 1.05997 0.0 -22.70922 0.0 7.73345 -41.9126 23.1566 0.0 22.7608 0.0 41.3084 -2.7374 4.25361 0.0 -14.503407 0.0 
  11.348800048828124 4.099289855957031 9.41218994140625 1.06205 75.3399 1257.66 -1.61219 -22.9274 20.5679 3.19139 11.6306 -18.8991 17.4607 45.6641 387.497 -88.7481 -47.6162 -440.232 -114.0887 -2.87963 369.487 -47.1187 20.0696 12.11 0.0 16.6579 0.0 24.1058 -9.83716 -22.8538 0.0 0.0 0.0 0.0 0.0 0.0 117.8461 -12.1262 -361.276 50.368 -6.89878 -6.73986 0.0 14.6114 0.0 3.42088 -10.9402 11.1427 0.0 0.0 0.0 0.0 0.0 0.0 -8.77964 -0.745238 -6.67552 0.0 18.7769 0.0 -11.2659 -6.443199 -0.51478 0.0 -24.23647 0.0 8.51714 -36.1687 25.0889 0.0 20.3107 0.0 41.3223 -2.2537003 1.24088 0.0 -15.455133 0.0 
  11.390799560546874 4.316419982910157 9.435900268554688 5.33299 75.0101 1254.91 -1.57916 -23.7457 20.0608 3.91368 11.1641 -19.3235 17.4131 46.4967 387.338 -88.5848 -47.2707 -439.858 -114.1749 -3.16798 369.341 -47.477 18.726 12.979 0.0 16.3867 0.0 23.7968 -9.82142 -22.8502 0.0 0.0 0.0 0.0 0.0 0.0 117.7545 -12.1984 -361.346 50.1455 -7.07567 -6.37577 0.0 14.4467 0.0 2.88242 -11.0818 10.9844 0.0 0.0 0.0 0.0 0.0 0.0 -7.24275 -0.649118 -6.76244 0.0 20.3517 0.0 -11.2747 -4.8262005 -1.67141 0.0 -27.3157 0.0 9.39215 -34.7773 27.2504 0.0 20.1229 0.0 41.2162 -3.3880005 -1.79479 0.0 -15.627551 0.0 
